<svg width="14" height="13" viewBox="0 0 14 13" fill="none" xmlns="http://www.w3.org/2000/svg">
<path d="M12.253 6.50792C12.7613 6.75708 12.9714 7.37114 12.7222 7.87944C12.6365 8.05439 12.503 8.20065 12.338 8.30188L12.253 8.34866L7.31082 10.7713C7.0521 10.8981 6.75327 10.9096 6.48726 10.8059L6.40851 10.7713L1.46632 8.34866C0.958013 8.09949 0.747937 7.48544 0.997103 6.97713C1.08286 6.80218 1.21638 6.65592 1.38131 6.5547L1.46632 6.50792L2.27757 6.10553L2.81287 6.41861L1.6919 6.9681C1.58984 7.01813 1.50731 7.10066 1.45729 7.20271C1.3416 7.43871 1.42391 7.7203 1.63975 7.85907L1.6919 7.88847L6.63409 10.3111C6.7586 10.3721 6.90169 10.3797 7.03084 10.334L7.08524 10.3111L12.0274 7.88847C12.1295 7.83845 12.212 7.75592 12.262 7.65387C12.3777 7.41787 12.2954 7.13628 12.0796 6.99751L12.0274 6.9681L10.8326 6.38239L11.3975 5.95843L12.253 6.50792Z" fill="#419EF7"/>
<path fill-rule="evenodd" clip-rule="evenodd" d="M7.31082 1.81328L12.253 4.23588C12.7613 4.48505 12.9714 5.0991 12.7222 5.60741C12.6222 5.81152 12.4571 5.97658 12.253 6.07663L7.31082 8.49923C7.02623 8.63874 6.6931 8.63874 6.40851 8.49923L1.46632 6.07663C0.958012 5.82746 0.747936 5.21341 0.997102 4.7051C1.09715 4.50099 1.26221 4.33593 1.46632 4.23588L6.40851 1.81328C6.6931 1.67377 7.02623 1.67377 7.31082 1.81328ZM12.0274 5.61637C12.1295 5.56634 12.212 5.48381 12.262 5.38176L12.2853 5.32658C12.3709 5.08468 12.2634 4.81168 12.0274 4.696L7.08524 2.27339C6.94295 2.20364 6.77638 2.20364 6.63409 2.27339L1.6919 4.696C1.58984 4.74602 1.50731 4.82855 1.45729 4.93061C1.3327 5.18476 1.43774 5.49179 1.6919 5.61637L6.63409 8.03898C6.77638 8.10873 6.94295 8.10873 7.08524 8.03898L12.0274 5.61637Z" fill="#419EF7"/>
</svg>
